<?xml version="1.0" encoding="utf-8"?>
<!-- Generator: Adobe Illustrator 27.3.1, SVG Export Plug-In . SVG Version: 6.00 Build 0)  -->
<svg version="1.1" id="Layer_1" xmlns="http://www.w3.org/2000/svg" xmlns:xlink="http://www.w3.org/1999/xlink" x="0px" y="0px"
	 viewBox="0 0 133.67 115.69" style="enable-background:new 0 0 133.67 115.69;" xml:space="preserve">
<style type="text/css">
	.st0{fill:#FDF2EC;}
	.st1{fill:#013D5C;}
</style>
<g>
	<path class="st0" d="M17.64,111.87l78.45-1.28V33.42L17.64,111.87z M83.93,92.6L55.4,93.06l28.53-28.53V92.6z"/>
	<g>
		<path class="st1" d="M18.67,103.08h-5.12C6.08,103.08,0,97.01,0,89.54V14.91C0,7.44,6.08,1.36,13.55,1.36h4.38
			c1.16,0,2.1,0.94,2.1,2.1v78.31c0,1.16-0.94,2.1-2.1,2.1s-2.1-0.94-2.1-2.1V5.55h-2.29c-5.16,0-9.35,4.2-9.35,9.35v74.63
			c0,5.16,4.2,9.35,9.35,9.35h5.12c1.16,0,2.1,0.94,2.1,2.1S19.83,103.08,18.67,103.08z"/>
	</g>
	<g>
		<path class="st1" d="M120.99,103.08h-15.86c-1.16,0-2.1-0.94-2.1-2.1s0.94-2.1,2.1-2.1h15.86c4.68,0,8.49-3.81,8.49-8.49v-75.5
			c0-5.16-4.2-9.35-9.35-9.35h-5.4v76.64c0,1.16-0.94,2.1-2.1,2.1c-1.16,0-2.1-0.94-2.1-2.1V3.46c0-1.16,0.94-2.1,2.1-2.1h7.49
			c7.47,0,13.55,6.08,13.55,13.55v75.5C133.67,97.4,127.98,103.08,120.99,103.08z"/>
	</g>
	<g>
		<path class="st1" d="M112.63,18.84H28.95c-1.16,0-2.1-0.94-2.1-2.1s0.94-2.1,2.1-2.1h83.68c1.16,0,2.1,0.94,2.1,2.1
			S113.79,18.84,112.63,18.84z"/>
	</g>
	<g>
		<path class="st1" d="M96.24,114.11H18.78c-0.85,0-1.61-0.51-1.93-1.29c-0.33-0.78-0.15-1.68,0.44-2.28l77.46-78.59
			c0.6-0.61,1.5-0.79,2.29-0.47c0.79,0.32,1.3,1.09,1.3,1.94v78.59C98.33,113.17,97.39,114.11,96.24,114.11z M23.79,109.92h70.35
			V38.54L23.79,109.92z"/>
	</g>
	<g>
		<path class="st1" d="M83.22,94.32H56.37c-0.85,0-1.61-0.51-1.94-1.29c-0.32-0.78-0.15-1.69,0.45-2.29l26.86-26.86
			c0.6-0.6,1.5-0.78,2.29-0.45c0.78,0.32,1.29,1.09,1.29,1.94v26.86C85.32,93.38,84.38,94.32,83.22,94.32z M61.43,90.13h19.7v-19.7
			L61.43,90.13z"/>
	</g>
	<g>
		<path class="st1" d="M39.13,114.11c-1.16,0-2.1-0.94-2.1-2.1v-9.33c0-1.16,0.94-2.1,2.1-2.1s2.1,0.94,2.1,2.1v9.33
			C41.23,113.17,40.29,114.11,39.13,114.11z"/>
	</g>
	<g>
		<path class="st1" d="M54.4,114.11c-1.16,0-2.1-0.94-2.1-2.1v-9.33c0-1.16,0.94-2.1,2.1-2.1s2.1,0.94,2.1,2.1v9.33
			C56.49,113.17,55.55,114.11,54.4,114.11z"/>
	</g>
	<g>
		<path class="st1" d="M69.66,114.11c-1.16,0-2.1-0.94-2.1-2.1v-9.33c0-1.16,0.94-2.1,2.1-2.1c1.16,0,2.1,0.94,2.1,2.1v9.33
			C71.76,113.17,70.82,114.11,69.66,114.11z"/>
	</g>
	<g>
		<path class="st1" d="M84.93,114.11c-1.16,0-2.1-0.94-2.1-2.1v-9.33c0-1.16,0.94-2.1,2.1-2.1c1.16,0,2.1,0.94,2.1,2.1v9.33
			C87.02,113.17,86.09,114.11,84.93,114.11z"/>
	</g>
	<g>
		<path class="st1" d="M131.15,94.31c-1.16,0-2.1-0.94-2.1-2.1c0-4.38-3.56-7.94-7.94-7.94h-8.47c-1.16,0-2.1-0.94-2.1-2.1
			c0-1.16,0.94-2.1,2.1-2.1h8.47c6.69,0,12.13,5.44,12.13,12.13C133.25,93.37,132.31,94.31,131.15,94.31z"/>
	</g>
	<g>
		<path class="st1" d="M2.63,94.31c-1.16,0-2.1-0.94-2.1-2.1c0-6.69,5.44-12.13,12.13-12.13h5.12c1.16,0,2.1,0.94,2.1,2.1
			c0,1.16-0.94,2.1-2.1,2.1h-5.12c-4.38,0-7.94,3.56-7.94,7.94C4.72,93.37,3.78,94.31,2.63,94.31z"/>
	</g>
</g>
</svg>
