<?xml version="1.0" encoding="utf-8"?>
<!-- Generator: Adobe Illustrator 27.3.1, SVG Export Plug-In . SVG Version: 6.00 Build 0)  -->
<svg version="1.1" id="Layer_1" xmlns="http://www.w3.org/2000/svg" xmlns:xlink="http://www.w3.org/1999/xlink" x="0px" y="0px"
	 viewBox="0 0 64.07 46.7" style="enable-background:new 0 0 64.07 46.7;" xml:space="preserve">
<style type="text/css">
	.st0{fill:#FDF2EC;}
	.st1{fill:#013D5C;}
</style>
<g>
	<polygon class="st0" points="18.22,1 38.63,1.02 61.55,33.56 40.92,33.67 	"/>
	<g>
		<path class="st1" d="M63.29,33.58L39.43,0.42C39.24,0.16,38.94,0,38.62,0H5.85C5.47,0,5.13,0.21,4.96,0.55l-4.85,9.71
			c-0.25,0.49-0.05,1.09,0.45,1.34c0.49,0.25,1.1,0.05,1.34-0.45L6.47,2h10.11l6.06,8.52h-8.82l-3.36-4.75
			c-0.32-0.45-0.94-0.56-1.39-0.24C8.62,5.84,8.52,6.47,8.84,6.92L19.85,22.5c0.06,0.22,0.19,0.41,0.38,0.54l4.25,6.01V45.7
			c0,0.55,0.45,1,1,1s1-0.45,1-1V31.88l2.03,2.87c0.19,0.27,0.49,0.42,0.82,0.42h28.12V45.7c0,0.55,0.45,1,1,1s1-0.45,1-1V35.17
			h3.04c0.38,0,0.72-0.21,0.89-0.54C63.54,34.29,63.51,33.89,63.29,33.58z M41.23,33.17l-7.07-9.93h8.95l7.07,9.93H41.23z
			 M32.74,21.24l-6.21-8.72h8.95l6.21,8.72H32.74z M37.94,12.52h7.74l6.27,8.72h-7.8L37.94,12.52z M44.23,10.52h-7.72L30.45,2h7.66
			L44.23,10.52z M19.04,2h8.95l6.06,8.52H25.1L19.04,2z M24.07,12.52l6.21,8.72H21.4l-6.16-8.72H24.07z M22.81,23.24h8.89l7.07,9.93
			h-8.95L22.81,23.24z M52.64,33.17l-7.07-9.93h7.82l7.15,9.93H52.64z"/>
		<path class="st1" d="M6.81,15.57c-3.2,0-5.8,2.6-5.8,5.8v4.8c0,0.55,0.45,1,1,1h9.61c0.55,0,1-0.45,1-1v-4.8
			C12.62,18.18,10.01,15.57,6.81,15.57z M10.62,25.18H3.01v-3.8c0-2.1,1.71-3.8,3.8-3.8c2.1,0,3.8,1.71,3.8,3.8V25.18z"/>
	</g>
</g>
</svg>
