<?xml version="1.0" encoding="utf-8"?>
<!-- Generator: Adobe Illustrator 27.3.1, SVG Export Plug-In . SVG Version: 6.00 Build 0)  -->
<svg version="1.1" id="Layer_1" xmlns="http://www.w3.org/2000/svg" xmlns:xlink="http://www.w3.org/1999/xlink" x="0px" y="0px"
	 viewBox="0 0 40.33 33.1" style="enable-background:new 0 0 40.33 33.1;" xml:space="preserve">
<style type="text/css">
	.st0{fill:#003D5C;}
</style>
<g>
	<path class="st0" d="M12.93,25.73c0,2.23-0.7,4.01-2.09,5.35c-1.39,1.35-3.01,2.02-4.87,2.02c-1.48,0-2.85-0.56-4.1-1.67
		C0.63,30.32,0,28.65,0,26.42c0-1.95,0.6-4.33,1.81-7.16c1.2-2.83,2.94-5.89,5.22-9.18C9.29,6.79,12.05,3.43,15.3,0l3.89,3.2
		c-3.06,4.36-5.15,7.74-6.26,10.15c-1.11,2.41-1.67,4.17-1.67,5.29c0,1.21,0.28,2.29,0.83,3.27C12.66,22.88,12.93,24.15,12.93,25.73
		z M34.21,25.73c0,2.23-0.7,4.01-2.09,5.35c-1.39,1.35-3.01,2.02-4.87,2.02c-1.48,0-2.85-0.56-4.1-1.67
		c-1.25-1.11-1.88-2.78-1.88-5.01c0-1.95,0.58-4.33,1.74-7.16c1.16-2.83,2.9-5.89,5.22-9.18c2.32-3.29,5.1-6.65,8.34-10.08l3.76,3.2
		c-2.97,4.36-5.01,7.74-6.12,10.15c-1.11,2.41-1.67,4.17-1.67,5.29c0,1.21,0.28,2.29,0.83,3.27C33.93,22.88,34.21,24.15,34.21,25.73
		z"/>
</g>
</svg>
