<?xml version="1.0" encoding="utf-8"?>
<!-- Generator: Adobe Illustrator 27.3.1, SVG Export Plug-In . SVG Version: 6.00 Build 0)  -->
<svg version="1.1" id="Layer_1" xmlns="http://www.w3.org/2000/svg" xmlns:xlink="http://www.w3.org/1999/xlink" x="0px" y="0px"
	 viewBox="0 0 31.05 31.05" style="enable-background:new 0 0 31.05 31.05;" xml:space="preserve">
<style type="text/css">
	.st0{fill-rule:evenodd;clip-rule:evenodd;fill:#E48B53;}
	.st1{fill:#E48B53;}
</style>
<g>
	<g>
		<g>
			<path class="st0" d="M13.48,15.59v7.6c0,0.11,0.09,0.2,0.2,0.2h2.82c0.11,0,0.2-0.09,0.2-0.2v-7.72h2.04
				c0.1,0,0.19-0.08,0.2-0.18l0.2-2.33c0.01-0.12-0.08-0.21-0.2-0.21H16.7v-1.65c0-0.39,0.31-0.7,0.7-0.7h1.58
				c0.11,0,0.2-0.09,0.2-0.2V7.87c0-0.11-0.09-0.2-0.2-0.2h-2.66c-1.56,0-2.83,1.27-2.83,2.83v2.24h-1.41c-0.11,0-0.2,0.09-0.2,0.2
				v2.33c0,0.11,0.09,0.2,0.2,0.2h1.41V15.59z"/>
		</g>
		<path class="st1" d="M15.53,0C6.96,0,0,6.96,0,15.53c0,8.56,6.96,15.53,15.53,15.53c8.56,0,15.53-6.96,15.53-15.53
			C31.05,6.96,24.09,0,15.53,0z M29.06,15.53c0,7.46-6.07,13.53-13.53,13.53c-7.46,0-13.53-6.07-13.53-13.53
			c0-7.46,6.07-13.53,13.53-13.53C22.99,1.99,29.06,8.06,29.06,15.53z"/>
	</g>
</g>
</svg>
