<?xml version="1.0" encoding="utf-8"?>
<!-- Generator: Adobe Illustrator 27.3.1, SVG Export Plug-In . SVG Version: 6.00 Build 0)  -->
<svg version="1.1" id="Layer_1" xmlns="http://www.w3.org/2000/svg" xmlns:xlink="http://www.w3.org/1999/xlink" x="0px" y="0px"
	 viewBox="0 0 31.05 31.05" style="enable-background:new 0 0 31.05 31.05;" xml:space="preserve">
<style type="text/css">
	.st0{fill:#E48B53;}
</style>
<g>
	<g>
		<g>
			<path class="st0" d="M15.8,7.2c-4.58,0-8.3,3.46-8.3,7.74c0,2.45,1.22,4.63,3.13,6.05l0.01,2.88l2.78-1.52
				c0.76,0.21,1.56,0.32,2.39,0.32c4.58,0,8.3-3.46,8.3-7.74S20.39,7.2,15.8,7.2z M21.14,12.83c-1.5,1.6-2.99,3.2-4.49,4.8
				c-0.71-0.76-1.41-1.51-2.11-2.27c-0.69,0.38-3.42,1.88-4.1,2.25c0,0-0.01-0.01-0.01-0.01c0-0.01,0-0.02,0.01-0.02
				c1.5-1.6,3-3.21,4.51-4.82c0.11,0.11,2.06,2.15,2.16,2.26c1.35-0.75,2.7-1.5,4.04-2.25c0,0,0.01,0.01,0.01,0.01
				C21.15,12.81,21.15,12.82,21.14,12.83z"/>
		</g>
	</g>
	<path class="st0" d="M15.53,0C6.96,0,0,6.96,0,15.53c0,8.56,6.96,15.53,15.53,15.53c8.56,0,15.53-6.96,15.53-15.53
		C31.05,6.96,24.09,0,15.53,0z M15.53,29.06c-7.46,0-13.53-6.07-13.53-13.53c0-7.46,6.07-13.53,13.53-13.53
		c7.46,0,13.53,6.07,13.53,13.53C29.06,22.99,22.99,29.06,15.53,29.06z"/>
</g>
</svg>
