<?xml version="1.0" encoding="utf-8"?>
<!-- Generator: Adobe Illustrator 27.3.1, SVG Export Plug-In . SVG Version: 6.00 Build 0)  -->
<svg version="1.1" id="Layer_1" xmlns="http://www.w3.org/2000/svg" xmlns:xlink="http://www.w3.org/1999/xlink" x="0px" y="0px"
	 viewBox="0 0 58.08 61.83" style="enable-background:new 0 0 58.08 61.83;" xml:space="preserve">
<style type="text/css">
	.st0{fill:#FDF2EC;}
	.st1{fill:#023D5C;}
</style>
<g>
	<g>
		<polygon class="st0" points="41.19,3.36 8.71,7.02 8.71,51.28 40.83,45 		"/>
	</g>
	<g>
		<path class="st1" d="M57.74,4.2c-0.22-0.19-0.51-0.28-0.79-0.24L23.99,8.56l-4.52-0.53c-0.28-0.04-0.57,0.06-0.78,0.25
			c-0.21,0.19-0.34,0.46-0.34,0.75v51.1c0,0.51,0.38,0.93,0.88,0.99l4.65,0.55c0.04,0,0.08,0.01,0.12,0.01c0,0,0,0,0,0c0,0,0,0,0,0
			c0,0,0,0,0,0c0,0,0,0,0,0c0.06,0,0.12-0.01,0.19-0.02l33.08-6.28c0.47-0.09,0.81-0.5,0.81-0.98V4.95
			C58.08,4.67,57.96,4.39,57.74,4.2z M23,59.55l-2.65-0.31V10.14L23,10.45V59.55z M56.08,53.57L25,59.46V10.44L56.08,6.1V53.57z"/>
		<path class="st1" d="M15.55,52.05l-8.9,1.76V5.08l26.43-2.81v2.68c0,0.55,0.45,1,1,1s1-0.45,1-1V1.16c0-0.28-0.12-0.55-0.33-0.74
			c-0.21-0.19-0.5-0.28-0.77-0.25L1.44,3.62L1.08,3.59C0.8,3.57,0.53,3.66,0.32,3.85C0.17,3.99,0.09,4.18,0.04,4.38
			c0,0,0,0.01,0,0.01C0.03,4.45,0,4.52,0,4.59v50.09c0,0.52,0.4,0.96,0.92,1l4.63,0.36c0.01,0,0.02,0,0.03,0c0.01,0,0.01,0,0.02,0
			c0.02,0,0.04,0,0.05,0c0.03,0,0.05-0.01,0.08-0.02c0.01,0,0.03,0,0.04,0l10.16-2.01c0.54-0.11,0.89-0.63,0.79-1.17
			C16.62,52.3,16.09,51.94,15.55,52.05z M2,5.67l2.65,0.21v48.08L2,53.75V5.67z"/>
		<path class="st1" d="M26.32,17.84c0.2,0.2,0.45,0.29,0.71,0.29s0.51-0.1,0.71-0.29l3.66-3.66l5.9,5.71
			c0.03,0.03,0.07,0.04,0.1,0.06L26.51,30.92c-0.39,0.39-0.39,1.03,0.01,1.41c0.19,0.19,0.45,0.29,0.7,0.29
			c0.26,0,0.51-0.1,0.71-0.3l1.57-1.58l6.97,6.74l-9.95,9.95c-0.39,0.39-0.39,1.02,0,1.41c0.2,0.2,0.45,0.29,0.71,0.29
			s0.51-0.1,0.71-0.29l19.33-19.33l4.14,4.01c0.19,0.19,0.45,0.28,0.7,0.28c0.26,0,0.52-0.1,0.72-0.3c0.38-0.4,0.37-1.03-0.02-1.41
			l-4.11-3.98l6.15-6.15c0.39-0.39,0.39-1.02,0-1.41s-1.02-0.39-1.41,0L37.88,36.08l-6.97-6.75L50.54,9.54
			c0.39-0.39,0.39-1.03-0.01-1.41c-0.39-0.39-1.03-0.39-1.41,0.01L38.76,18.57c-0.03-0.04-0.04-0.08-0.08-0.12l-5.87-5.69l0.68-0.68
			c0.39-0.39,0.39-1.02,0-1.41s-1.02-0.39-1.41,0l-5.75,5.75C25.93,16.82,25.93,17.45,26.32,17.84z"/>
		<path class="st1" d="M53.23,35.92L34.21,54.94c-0.39,0.39-0.39,1.02,0,1.41c0.2,0.2,0.45,0.29,0.71,0.29s0.51-0.1,0.71-0.29
			l9.13-9.13l5.99,5.81c0.19,0.19,0.45,0.28,0.7,0.28c0.26,0,0.52-0.1,0.72-0.3c0.38-0.4,0.38-1.03-0.02-1.41l-5.97-5.79l8.48-8.48
			c0.39-0.39,0.39-1.02,0-1.41S53.62,35.53,53.23,35.92z"/>
		<path class="st1" d="M16.33,16.29c0-0.32-0.16-0.63-0.42-0.82l-4.52-3.2l4.52-3.19c0.45-0.32,0.56-0.94,0.24-1.39
			s-0.94-0.56-1.39-0.24l-5.67,4.01c-0.26,0.19-0.42,0.49-0.42,0.82c0,0.32,0.16,0.63,0.42,0.82l4.52,3.2l-4.52,3.2
			c-0.27,0.19-0.42,0.49-0.42,0.82s0.16,0.63,0.42,0.82l4.52,3.2l-4.52,3.2c-0.27,0.19-0.42,0.49-0.42,0.82s0.16,0.63,0.42,0.82
			l4.52,3.2l-4.52,3.2c-0.26,0.19-0.42,0.49-0.42,0.82s0.16,0.63,0.42,0.82l4.52,3.2l-4.52,3.2c-0.26,0.19-0.42,0.49-0.42,0.82
			s0.16,0.63,0.42,0.82l5.67,4.02c0.18,0.12,0.38,0.18,0.58,0.18c0.31,0,0.62-0.15,0.82-0.42c0.32-0.45,0.21-1.07-0.24-1.39
			l-4.52-3.21l4.52-3.21c0.26-0.19,0.42-0.49,0.42-0.82s-0.16-0.63-0.42-0.82l-4.52-3.2l4.52-3.2c0.27-0.19,0.42-0.49,0.42-0.82
			s-0.16-0.63-0.42-0.82l-4.52-3.2l4.52-3.2c0.27-0.19,0.42-0.49,0.42-0.82s-0.16-0.63-0.42-0.82l-4.52-3.2l4.52-3.2
			C16.18,16.92,16.33,16.61,16.33,16.29z"/>
	</g>
</g>
</svg>
