<?xml version="1.0" encoding="utf-8"?>
<!-- Generator: Adobe Illustrator 27.3.1, SVG Export Plug-In . SVG Version: 6.00 Build 0)  -->
<svg version="1.1" id="Layer_1" xmlns="http://www.w3.org/2000/svg" xmlns:xlink="http://www.w3.org/1999/xlink" x="0px" y="0px"
	 viewBox="0 0 64.83 69.12" style="enable-background:new 0 0 64.83 69.12;" xml:space="preserve">
<style type="text/css">
	.st0{fill:#FDF2EC;}
	.st1{fill:#003D5C;}
</style>
<g>
	<path class="st0" d="M46.65,21.79v-6.57c0-5.74-4.65-10.39-10.39-10.39h-8.02c-5.74,0-10.39,4.65-10.39,10.39v6.57H46.65z"/>
	<path class="st0" d="M34.5,14h-4.21c-1.05,0-1.9-0.85-1.9-1.9V4.04c0-1.05,0.85-1.9,1.9-1.9h4.21c1.05,0,1.9,0.85,1.9,1.9v8.05
		C36.4,13.15,35.55,14,34.5,14z"/>
	<g>
		<path class="st1" d="M47.48,36.11c2.64-0.04,4.78-2.2,4.78-4.85c0-2.46-1.85-4.48-4.22-4.79v-0.63c0-0.62-0.5-1.12-1.12-1.12
			c-0.62,0-1.12,0.5-1.12,1.12v6.19c0,7.44-6.06,13.5-13.5,13.5s-13.5-6.05-13.5-13.5v-6.19c0-0.62-0.5-1.12-1.12-1.12
			c-0.62,0-1.12,0.5-1.12,1.12v0.63c-2.41,0.28-4.29,2.31-4.29,4.8c0,2.67,2.17,4.85,4.85,4.85c1.19,4.43,4.27,8.08,8.31,10.05v6.41
			c0,0.62,0.5,1.12,1.12,1.12c0.62,0,1.12-0.5,1.12-1.12v-5.51c1.46,0.45,3.02,0.7,4.63,0.7c1.73,0,3.39-0.29,4.95-0.81v5.62
			c0,0.62,0.5,1.12,1.12,1.12s1.12-0.5,1.12-1.12v-6.56C43.37,44.01,46.32,40.43,47.48,36.11z M50.02,31.27
			c0,1.27-0.9,2.33-2.1,2.57c0.07-0.59,0.11-1.19,0.11-1.8v-3.31C49.17,29.02,50.02,30.04,50.02,31.27z M14.51,31.27
			c0-1.25,0.88-2.3,2.06-2.56v3.33c0,0.61,0.04,1.21,0.11,1.81C15.45,33.63,14.51,32.56,14.51,31.27z"/>
		<path class="st1" d="M30.7,26.6c-0.62,0-1.12,0.5-1.12,1.12v7.1c0,0.62,0.5,1.12,1.12,1.12h2.7c0.62,0,1.12-0.5,1.12-1.12
			c0-0.62-0.5-1.12-1.12-1.12h-1.59v-5.98C31.81,27.1,31.31,26.6,30.7,26.6z"/>
		<path class="st1" d="M29.22,40.74c0.75,0.65,1.73,1.01,2.76,1.01c1.11,0,2.19-0.43,2.95-1.19c0.44-0.43,0.44-1.14,0.01-1.58
			c-0.44-0.44-1.14-0.44-1.58-0.01c-0.66,0.66-1.95,0.7-2.67,0.08c-0.47-0.4-1.17-0.35-1.58,0.11
			C28.71,39.63,28.76,40.33,29.22,40.74z"/>
		<path class="st1" d="M27.67,28.56c0-1.08-0.88-1.96-1.96-1.96c-1.08,0-1.96,0.88-1.96,1.96c0,1.08,0.88,1.96,1.96,1.96
			C26.79,30.52,27.67,29.64,27.67,28.56z"/>
		<path class="st1" d="M40.32,28.56c0-1.08-0.88-1.96-1.96-1.96c-1.08,0-1.96,0.88-1.96,1.96c0,1.08,0.88,1.96,1.96,1.96
			C39.44,30.52,40.32,29.64,40.32,28.56z"/>
		<path class="st1" d="M12.28,23.18h38.86c0.62,0,1.12-0.5,1.12-1.12c0-0.62-0.5-1.12-1.12-1.12h-3.61v-5.43
			c0-6-4.6-10.94-10.45-11.49c-0.1-1.63-1.45-2.93-3.1-2.93h-3.29c-1.65,0-2.98,1.28-3.1,2.9c-6.11,0.29-11,5.34-11,11.52v5.43
			h-4.29c-0.62,0-1.12,0.5-1.12,1.12C11.16,22.68,11.66,23.18,12.28,23.18z M18.8,15.52c0-4.95,3.88-8.99,8.75-9.29v6.73
			c0,1.72,1.4,3.12,3.12,3.12c0.62,0,1.12-0.5,1.12-1.12c0-0.62-0.5-1.12-1.12-1.12c-0.49,0-0.89-0.4-0.89-0.89V4.22
			c0-0.49,0.4-0.89,0.89-0.89h3.29c0.49,0,0.89,0.4,0.89,0.89v8.74c0,0.62,0.5,1.12,1.12,1.12c0.62,0,1.12-0.5,1.12-1.12V6.28
			c4.61,0.55,8.2,4.48,8.2,9.24v5.43H18.8V15.52z"/>
		<path class="st1" d="M63.54,63.16c0.07-0.64,0.11-2.78-1.95-5.3c-1.5-1.85-4.39-2.99-4.51-3.04c-0.04-0.01-0.07-0.03-0.11-0.04
			L42.3,50.76c-0.59-0.16-1.21,0.19-1.37,0.78c-0.16,0.6,0.19,1.21,0.78,1.37l5.86,1.61c-0.09,0.16-0.16,0.34-0.16,0.54l-0.03,7.15
			H18.25v-7.94l4.95-1.36c0.59-0.16,0.94-0.78,0.78-1.37c-0.16-0.59-0.78-0.95-1.37-0.78L7.93,54.79c-0.04,0.01-0.07,0.02-0.11,0.04
			c-0.12,0.05-3.01,1.19-4.51,3.04c-2.05,2.52-2.02,4.66-1.95,5.3l-0.37,4.75c-0.05,0.62,0.41,1.15,1.03,1.2c0.03,0,0.06,0,0.09,0
			c0.58,0,1.07-0.44,1.11-1.03l0.38-4.87c0.01-0.08,0-0.19-0.01-0.27c-0.01-0.07-0.22-1.62,1.45-3.67c0.92-1.12,2.82-2.06,3.54-2.35
			l7.43-2.04v8.04c0,0.05,0.02,0.1,0.03,0.14c-0.01,0.03-0.03,0.06-0.03,0.1l-0.69,4.68c-0.09,0.61,0.33,1.18,0.94,1.27
			c0.61,0.08,1.18-0.33,1.27-0.94l0.55-3.72h29.5l0.83,3.8c0.11,0.52,0.58,0.88,1.09,0.88c0.08,0,0.16-0.01,0.24-0.03
			c0.6-0.13,0.98-0.73,0.85-1.33l-0.99-4.56l0.04-8.12l6.69,1.84c0.72,0.29,2.63,1.22,3.54,2.35c1.67,2.05,1.46,3.61,1.46,3.65
			c-0.02,0.09-0.02,0.19-0.02,0.29l0.37,4.87c0.04,0.59,0.53,1.03,1.11,1.03c0.03,0,0.06,0,0.09,0c0.62-0.05,1.08-0.58,1.03-1.2
			L63.54,63.16z"/>
		<path class="st1" d="M24.65,55.34c-0.37-0.48-1.06-0.57-1.55-0.21c-0.49,0.37-0.59,1.07-0.22,1.56c0.23,0.31,2.44,2.98,9.45,2.98
			c7.08,0,9.61-2.8,9.71-2.92c0.4-0.46,0.35-1.15-0.1-1.56c-0.45-0.41-1.15-0.37-1.57,0.07c-0.02,0.02-2.09,2.17-8.04,2.17
			C26.53,57.45,24.71,55.42,24.65,55.34z"/>
	</g>
</g>
</svg>
