<?xml version="1.0" encoding="utf-8"?>
<!-- Generator: Adobe Illustrator 27.3.1, SVG Export Plug-In . SVG Version: 6.00 Build 0)  -->
<svg version="1.1" id="Layer_1" xmlns="http://www.w3.org/2000/svg" xmlns:xlink="http://www.w3.org/1999/xlink" x="0px" y="0px"
	 viewBox="0 0 31.47 32.37" style="enable-background:new 0 0 31.47 32.37;" xml:space="preserve">
<style type="text/css">
	.st0{fill:#E48B53;}
</style>
<path class="st0" d="M19.8,0C13.36,0,8.13,5.24,8.13,11.67c0,3.12,1.24,5.96,3.24,8.06L0,31.1l1.27,1.27l11.44-11.44c0,0,0,0,0,0
	l1.28-1.28c-2.46-1.8-4.07-4.71-4.07-7.98c0-5.45,4.43-9.88,9.88-9.88c5.45,0,9.88,4.43,9.88,9.88s-4.43,9.88-9.88,9.88
	c-1.51,0-2.94-0.34-4.22-0.95l-1.34,1.34c1.65,0.9,3.55,1.41,5.55,1.41c6.44,0,11.67-5.24,11.67-11.67C31.47,5.24,26.24,0,19.8,0z"
	/>
</svg>
