<?xml version="1.0" encoding="utf-8"?>
<!-- Generator: Adobe Illustrator 27.3.1, SVG Export Plug-In . SVG Version: 6.00 Build 0)  -->
<svg version="1.1" id="Layer_1" xmlns="http://www.w3.org/2000/svg" xmlns:xlink="http://www.w3.org/1999/xlink" x="0px" y="0px"
	 viewBox="0 0 64.83 73.86" style="enable-background:new 0 0 64.83 73.86;" xml:space="preserve">
<style type="text/css">
	.st0{fill:#FDF2EC;}
	.st1{fill:#003D5C;}
</style>
<g>
	<path class="st0" d="M15.84,71.47l-2.07-2.44c-1.05-1.23-0.9-3.08,0.34-4.13l16.13-13.7c1.23-1.05,3.08-0.9,4.13,0.34l2.07,2.44
		c1.05,1.23,0.9,3.08-0.34,4.13l-16.13,13.7C18.74,72.85,16.89,72.7,15.84,71.47z"/>
	
		<rect x="34.9" y="50.49" transform="matrix(0.7622 -0.6473 0.6473 0.7622 -24.9082 35.7291)" class="st0" width="2.55" height="2.55"/>
	
		<rect x="37.53" y="47.26" transform="matrix(0.7622 -0.6473 0.6473 0.7622 -23.0186 36.9625)" class="st0" width="2.55" height="5.1"/>
	<g>
		<path class="st1" d="M64.16,29.59l-1.32-1.57c-0.3-0.36-0.81-0.46-1.22-0.24l-6.15,3.16c-0.2,0.1-0.35,0.26-0.45,0.47l-2.12,4.53
			c-0.09,0.18-0.11,0.39-0.08,0.58L39.81,47.51l-1.02-1.2c-0.36-0.42-0.99-0.48-1.41-0.12l-2.42,2.04c-0.2,0.17-0.33,0.42-0.35,0.68
			c-0.02,0.26,0.06,0.53,0.23,0.73l0.1,0.12l-0.8,0.68c-0.56-0.36-1.19-0.59-1.87-0.65c-0.46-0.04-0.92,0.02-1.35,0.12
			c-0.16-0.11-0.34-0.18-0.55-0.18h-9.17c-0.55,0-1,0.45-1,1s0.45,1,1,1h6.88l-1.46,1.24h-5.42c-0.55,0-1,0.45-1,1s0.45,1,1,1h3.05
			l-10.36,8.75c-0.85,0.72-1.37,1.72-1.46,2.83c-0.09,1.11,0.25,2.19,0.97,3.04l1.52,1.8c0.72,0.85,1.73,1.37,2.83,1.46
			c0.12,0.01,0.24,0.01,0.36,0.01c0.98,0,1.92-0.34,2.68-0.98l15.34-12.95c1.42-1.2,1.82-3.15,1.14-4.79l0.8-0.68l0.1,0.12
			c0.17,0.2,0.42,0.33,0.68,0.35c0.03,0,0.06,0,0.08,0c0.24,0,0.46-0.08,0.65-0.24l2.42-2.04c0.42-0.36,0.47-0.99,0.12-1.41
			l-1.02-1.2l13.03-11c0.1,0.03,0.2,0.07,0.3,0.07c0.09,0,0.18-0.01,0.27-0.04l4.83-1.33c0.21-0.06,0.4-0.19,0.53-0.36l4.14-5.53
			C64.48,30.46,64.46,29.94,64.16,29.59z M34.83,57.4L19.5,70.35c-0.44,0.37-1,0.55-1.58,0.5c-0.58-0.05-1.1-0.32-1.47-0.76
			l-1.52-1.8c-0.37-0.44-0.55-1-0.5-1.58c0.05-0.58,0.32-1.1,0.76-1.48l15.34-12.95c0.4-0.33,0.88-0.51,1.4-0.51
			c0.06,0,0.12,0,0.19,0.01c0.58,0.05,1.1,0.32,1.47,0.76l1.52,1.81C35.86,55.26,35.75,56.63,34.83,57.4z M36.13,52.47l-0.55-0.65
			l0.64-0.54l0.54,0.65L36.13,52.47z M39.05,51.52l-0.1-0.12c0,0,0,0,0,0l-1.83-2.17c0,0,0,0,0,0l-0.1-0.11l0.89-0.75l1.02,1.2
			c0,0,0,0,0,0c0,0,0,0,0,0l1.02,1.2L39.05,51.52z M58.66,34.89l-3.52,0.97l1.55-3.3l5.13-2.64l0.3,0.35L58.66,34.89z"/>
		<path class="st1" d="M17.74,40.93c0.34,0.26,0.63,0.5,0.88,0.71c1.65,1.44,1.56,2.57,1.56,2.59c-0.01,0.05-0.01,0.11-0.01,0.16
			v1.64c0,0.55,0.45,1,1,1s1-0.45,1-1v-1.58c0.05-0.49,0.04-2.33-2.23-4.32c-0.27-0.23-0.59-0.49-0.96-0.78
			c-2.62-2.05-7.02-5.48-5.8-13.97c1.31-9.22,9.86-12.33,13.6-12.35c3.28,0.02,11.95,2.26,13.39,12.35
			c1.22,8.56-3.09,11.98-5.67,14.02c-0.34,0.27-0.64,0.51-0.9,0.73c-2.27,1.99-2.27,3.82-2.23,4.32v1.58c0,0.55,0.45,1,1,1
			c0.55,0,1-0.45,1-1v-1.64c0-0.03-0.01-0.1-0.01-0.13c0-0.05-0.09-1.18,1.55-2.62c0.23-0.2,0.51-0.42,0.82-0.67
			c2.72-2.16,7.79-6.17,6.41-15.87c-1.45-10.19-10.12-14.02-15.31-14.07c-0.01,0-0.01,0-0.02,0c-0.01,0-0.03,0-0.04,0
			c-0.01,0-0.03,0-0.04,0c-0.01,0-0.02,0-0.02,0c-4.48,0.05-14.01,3.51-15.51,14.07C9.81,34.74,14.97,38.76,17.74,40.93z"/>
		<path class="st1" d="M25.72,32.39v10.7c0,0.55,0.45,1,1,1s1-0.45,1-1v-10.7c0-0.55-0.45-1-1-1S25.72,31.83,25.72,32.39z"/>
		<path class="st1" d="M26.72,9.52c0.55,0,1-0.45,1-1V2.59c0-0.55-0.45-1-1-1s-1,0.45-1,1v5.93C25.72,9.07,26.17,9.52,26.72,9.52z"
			/>
		<path class="st1" d="M40.68,15.2c0.27,0,0.54-0.11,0.73-0.32l4.03-4.35c0.38-0.4,0.35-1.04-0.05-1.41
			c-0.4-0.38-1.04-0.35-1.41,0.05l-4.03,4.35c-0.38,0.4-0.35,1.04,0.05,1.41C40.19,15.11,40.44,15.2,40.68,15.2z"/>
		<path class="st1" d="M11.66,14.88c0.2,0.21,0.46,0.32,0.73,0.32c0.24,0,0.49-0.09,0.68-0.27c0.4-0.38,0.43-1.01,0.05-1.41
			L9.1,9.17C8.72,8.77,8.09,8.74,7.68,9.12c-0.4,0.38-0.43,1.01-0.05,1.41L11.66,14.88z"/>
		<path class="st1" d="M7.9,23.82l-5.86-0.95c-0.54-0.09-1.06,0.28-1.15,0.83c-0.09,0.55,0.28,1.06,0.83,1.15l5.86,0.95
			c0.05,0.01,0.11,0.01,0.16,0.01c0.48,0,0.91-0.35,0.99-0.84C8.81,24.42,8.44,23.91,7.9,23.82z"/>
		<path class="st1" d="M44.7,24.97c0.08,0.49,0.5,0.84,0.99,0.84c0.05,0,0.11,0,0.16-0.01l5.86-0.95c0.55-0.09,0.92-0.6,0.83-1.15
			c-0.09-0.54-0.61-0.91-1.15-0.83l-5.86,0.95C44.99,23.91,44.62,24.42,44.7,24.97z"/>
		<path class="st1" d="M28.62,28.63c0.27,0.59,0.72,1.56,1.8,1.56c1.09,0,1.54-0.99,1.81-1.58c0.06-0.13,0.15-0.32,0.21-0.43
			c0.45-0.1,0.78-0.5,0.78-0.98c0-0.55-0.45-1-1-1c-1.08,0-1.53,0.97-1.8,1.56c-0.27-0.59-0.72-1.56-1.8-1.56
			c-1.08,0-1.53,0.96-1.8,1.55c-0.27-0.59-0.72-1.55-1.8-1.55c-1.08,0-1.53,0.96-1.8,1.55c-0.27-0.59-0.72-1.55-1.8-1.55
			c-0.55,0-1,0.45-1,1c0,0.48,0.33,0.87,0.78,0.98c0.07,0.11,0.15,0.3,0.21,0.43c0.27,0.59,0.72,1.58,1.81,1.58
			c1.08,0,1.53-0.96,1.8-1.55c0.27,0.59,0.72,1.55,1.8,1.55C27.9,30.19,28.35,29.22,28.62,28.63z"/>
	</g>
</g>
</svg>
