<?xml version="1.0" encoding="utf-8"?>
<!-- Generator: Adobe Illustrator 27.3.1, SVG Export Plug-In . SVG Version: 6.00 Build 0)  -->
<svg version="1.1" id="Layer_1" xmlns="http://www.w3.org/2000/svg" xmlns:xlink="http://www.w3.org/1999/xlink" x="0px" y="0px"
	 viewBox="0 0 31.05 31.05" style="enable-background:new 0 0 31.05 31.05;" xml:space="preserve">
<style type="text/css">
	.st0{fill:#E48B53;}
</style>
<g>
	<g>
		<g>
			<path class="st0" d="M23.45,10.53c-0.51,0.23-1.08,0.37-1.63,0.46c0.26-0.04,0.63-0.51,0.79-0.7c0.23-0.29,0.42-0.62,0.53-0.98
				c0.01-0.03,0.02-0.06-0.01-0.08c-0.04-0.01-0.06-0.01-0.09,0.01c-0.61,0.33-1.24,0.57-1.92,0.73c-0.06,0.01-0.1,0-0.13-0.04
				c-0.06-0.06-0.11-0.12-0.17-0.17c-0.28-0.24-0.59-0.43-0.93-0.57C19.45,9,18.96,8.93,18.48,8.96c-0.47,0.03-0.93,0.16-1.35,0.38
				c-0.42,0.22-0.79,0.52-1.09,0.89c-0.31,0.38-0.53,0.83-0.65,1.3c-0.11,0.46-0.1,0.91-0.03,1.38c0.01,0.08,0,0.09-0.07,0.08
				c-2.63-0.39-4.81-1.33-6.58-3.35C8.63,9.54,8.59,9.54,8.52,9.64c-0.77,1.16-0.4,3.03,0.57,3.94c0.13,0.12,0.26,0.24,0.4,0.36
				c-0.05,0.01-0.7-0.06-1.27-0.36c-0.08-0.05-0.12-0.02-0.12,0.07c-0.01,0.13,0,0.24,0.02,0.38c0.15,1.18,0.96,2.27,2.08,2.69
				c0.13,0.06,0.28,0.1,0.42,0.13c-0.25,0.06-0.52,0.1-1.25,0.04C9.29,16.87,9.26,16.91,9.29,17c0.55,1.49,1.73,1.94,2.62,2.19
				c0.12,0.02,0.24,0.02,0.36,0.05c-0.01,0.01-0.01,0.01-0.02,0.02c-0.29,0.45-1.31,0.78-1.79,0.95c-0.86,0.3-1.8,0.44-2.72,0.35
				c-0.15-0.02-0.18-0.02-0.22,0c-0.04,0.02,0,0.06,0.04,0.1c0.19,0.12,0.37,0.23,0.57,0.34c0.58,0.31,1.18,0.55,1.82,0.73
				c3.26,0.9,6.94,0.24,9.38-2.19c1.92-1.91,2.6-4.55,2.6-7.18c0-0.1,0.12-0.16,0.19-0.21c0.5-0.38,0.93-0.83,1.31-1.33
				c0.08-0.11,0.11-0.21,0.11-0.25c0-0.01,0-0.01,0-0.01C23.54,10.48,23.51,10.5,23.45,10.53z"/>
		</g>
		<path class="st0" d="M15.53,0C6.96,0,0,6.96,0,15.53c0,8.56,6.96,15.53,15.53,15.53c8.56,0,15.53-6.96,15.53-15.53
			C31.05,6.96,24.09,0,15.53,0z M15.53,29.06c-7.46,0-13.53-6.07-13.53-13.53c0-7.46,6.07-13.53,13.53-13.53s13.53,6.07,13.53,13.53
			C29.06,22.99,22.99,29.06,15.53,29.06z"/>
	</g>
</g>
</svg>
