<?xml version="1.0" encoding="utf-8"?>
<!-- Generator: Adobe Illustrator 27.3.1, SVG Export Plug-In . SVG Version: 6.00 Build 0)  -->
<svg version="1.1" id="Layer_1" xmlns="http://www.w3.org/2000/svg" xmlns:xlink="http://www.w3.org/1999/xlink" x="0px" y="0px"
	 viewBox="0 0 31.05 31.05" style="enable-background:new 0 0 31.05 31.05;" xml:space="preserve">
<style type="text/css">
	.st0{fill:#E48B53;}
</style>
<g>
	<g>
		<g>
			<path class="st0" d="M18.53,16.52c-0.32-0.19-0.75-0.41-1.13-0.25c-0.29,0.12-0.48,0.58-0.67,0.81c-0.1,0.12-0.21,0.14-0.36,0.08
				c-1.1-0.44-1.94-1.17-2.55-2.19c-0.1-0.16-0.08-0.28,0.04-0.43c0.18-0.22,0.41-0.46,0.46-0.75c0.05-0.29-0.09-0.63-0.21-0.89
				c-0.15-0.33-0.33-0.8-0.66-0.99c-0.31-0.17-0.71-0.08-0.98,0.15c-0.47,0.38-0.7,0.98-0.69,1.57c0,0.17,0.02,0.34,0.06,0.5
				c0.09,0.39,0.28,0.76,0.48,1.1c0.15,0.26,0.32,0.52,0.5,0.76c0.59,0.8,1.32,1.49,2.17,2.01c0.42,0.26,0.88,0.49,1.35,0.64
				c0.53,0.18,1,0.36,1.57,0.25c0.6-0.11,1.19-0.48,1.43-1.06c0.07-0.17,0.11-0.36,0.07-0.54C19.34,16.92,18.83,16.7,18.53,16.52z"
				/>
		</g>
		<g>
			<path class="st0" d="M15.6,7.54c-4.35,0-7.88,3.54-7.88,7.88c0,1.33,0.34,2.64,0.99,3.81L7.56,23.5l4.29-1.15
				c1.15,0.63,2.44,0.96,3.75,0.96c4.35,0,7.88-3.54,7.88-7.88C23.48,11.07,19.95,7.54,15.6,7.54z M15.6,21.81
				c-1.14,0-2.27-0.31-3.26-0.9l-0.27-0.16l-2.4,0.64l0.64-2.38l-0.17-0.27c-0.61-1-0.93-2.15-0.93-3.31c0-3.52,2.87-6.39,6.39-6.39
				c3.52,0,6.39,2.87,6.39,6.39S19.12,21.81,15.6,21.81z"/>
		</g>
	</g>
	<path class="st0" d="M15.52,0C6.96,0,0,6.96,0,15.53c0,8.56,6.96,15.53,15.53,15.53c8.56,0,15.53-6.96,15.53-15.53
		C31.05,6.96,24.09,0,15.52,0z M15.52,29.06c-7.46,0-13.53-6.07-13.53-13.53c0-7.46,6.07-13.53,13.53-13.53
		c7.46,0,13.53,6.07,13.53,13.53C29.06,22.99,22.99,29.06,15.52,29.06z"/>
</g>
</svg>
