<?xml version="1.0" encoding="utf-8"?>
<!-- Generator: Adobe Illustrator 27.3.1, SVG Export Plug-In . SVG Version: 6.00 Build 0)  -->
<svg version="1.1" id="Layer_1" xmlns="http://www.w3.org/2000/svg" xmlns:xlink="http://www.w3.org/1999/xlink" x="0px" y="0px"
	 viewBox="0 0 64.83 63.55" style="enable-background:new 0 0 64.83 63.55;" xml:space="preserve">
<style type="text/css">
	.st0{fill:#FDF2EC;}
	.st1{fill:#003D5C;}
</style>
<g>
	<path class="st0" d="M55.24,35.21l-3.61,3.61c-0.49,0.49-1.29,0.49-1.79,0L34.41,23.4c-0.49-0.49-0.49-1.29,0-1.79L38.02,18
		c0.49-0.49,1.29-0.49,1.79,0l15.43,15.43C55.73,33.92,55.73,34.72,55.24,35.21z"/>
	<g>
		<path class="st1" d="M18.21,44.35v-8.82c0-0.02-0.01-0.04-0.01-0.07c0-0.02,0.01-0.04,0.01-0.07c0-0.55-0.45-1-1-1h-4.05
			c-0.55,0-1,0.45-1,1s0.45,1,1,1h3.05v7.96c0,3.8-3.09,6.89-6.89,6.89c-1.01,0-1.97-0.23-2.84-0.62V32.6l2.19-2.19h24.55
			c0.55,0,1-0.45,1-1s-0.45-1-1-1H8.25c-0.27,0-0.52,0.11-0.71,0.29l-2.77,2.77c-0.19,0.19-0.29,0.44-0.29,0.71v2.2H1.41
			c-0.55,0-1,0.45-1,1c0,0.04,0.02,0.08,0.02,0.11c0,0.01,0,0.01,0,0.02v8.82c0,4.9,3.99,8.89,8.89,8.89S18.21,49.25,18.21,44.35z
			 M2.43,44.35v-7.96h2.05v12.86C3.21,48,2.43,46.26,2.43,44.35z"/>
		<path class="st1" d="M55.4,37.19l0.64-0.64c1.14-1.14,1.14-2.99,0-4.13L40.8,17.19c-1.14-1.14-2.99-1.14-4.13,0l-3.07,3.07
			c-0.55,0.55-0.86,1.29-0.86,2.07s0.3,1.51,0.86,2.07l15.24,15.24c0.57,0.57,1.32,0.85,2.07,0.85s1.5-0.29,2.07-0.85l1.01-1.01
			l1.43,1.61l-4.65,4.24L40.12,33.69c-0.19-0.19-0.44-0.3-0.71-0.3c0,0,0,0,0,0c-0.26,0-0.52,0.1-0.71,0.29l-5.97,5.95
			c-1.29-0.74-2.96-0.57-4.06,0.52l-6.91,6.91c-1.31,1.31-1.31,3.45,0,4.77l0.18,0.18C22.6,52.67,23.46,53,24.33,53
			c0.86,0,1.73-0.33,2.38-0.99l6.91-6.91c1.1-1.1,1.27-2.77,0.53-4.06l5.26-5.24l10.63,10.73c0.2,0.2,0.45,0.3,0.71,0.3
			c0.24,0,0.48-0.09,0.67-0.26l6.09-5.55c0.41-0.37,0.44-1,0.07-1.41L55.4,37.19z M51.56,38.21c-0.36,0.36-0.95,0.36-1.3,0
			L35.02,22.97c-0.17-0.17-0.27-0.4-0.27-0.65s0.1-0.48,0.27-0.65l3.07-3.07c0.18-0.18,0.42-0.27,0.65-0.27
			c0.24,0,0.47,0.09,0.65,0.27l15.24,15.24c0.36,0.36,0.36,0.94,0,1.3L51.56,38.21z M32.2,43.69L25.3,50.6
			c-0.53,0.53-1.4,0.54-1.94,0l-0.18-0.18c-0.53-0.53-0.53-1.4,0-1.94l6.91-6.91c0.27-0.27,0.62-0.4,0.97-0.4s0.7,0.13,0.97,0.4
			l0.09,0.09c0,0,0,0,0,0s0,0,0,0l0.09,0.09C32.74,42.29,32.74,43.16,32.2,43.69z"/>
		<path class="st1" d="M35.99,47.65c-0.55,0-1,0.45-1,1v12.9H6.48v-5.7c0-0.55-0.45-1-1-1s-1,0.45-1,1v6.7c0,0.55,0.45,1,1,1h30.51
			c0.55,0,1-0.45,1-1v-13.9C36.99,48.1,36.54,47.65,35.99,47.65z"/>
		<path class="st1" d="M42.11,15.48c0.25,0,0.51-0.1,0.7-0.29l9.25-9.1c0.39-0.39,0.4-1.02,0.01-1.41c-0.39-0.39-1.02-0.4-1.41-0.01
			l-9.25,9.1c-0.39,0.39-0.4,1.02-0.01,1.41C41.59,15.38,41.85,15.48,42.11,15.48z"/>
		<path class="st1" d="M51.54,10.89l-2.92,2.88c-0.39,0.39-0.4,1.02-0.01,1.41c0.2,0.2,0.45,0.3,0.71,0.3c0.25,0,0.51-0.1,0.7-0.29
			l2.92-2.88c0.39-0.39,0.4-1.02,0.01-1.41C52.57,10.5,51.93,10.5,51.54,10.89z"/>
		<path class="st1" d="M64.49,27.48c-0.39-0.39-1.02-0.4-1.41-0.01l-3.75,3.69c-0.39,0.39-0.4,1.02-0.01,1.41
			c0.2,0.2,0.45,0.3,0.71,0.3c0.25,0,0.51-0.1,0.7-0.29l3.75-3.69C64.87,28.51,64.88,27.88,64.49,27.48z"/>
		<path class="st1" d="M54.59,7.98l-0.57,0.64c-0.37,0.41-0.33,1.04,0.08,1.41c0.19,0.17,0.43,0.25,0.66,0.25
			c0.28,0,0.55-0.11,0.75-0.34l0.57-0.64C56.45,8.9,56.41,8.26,56,7.9C55.59,7.53,54.95,7.57,54.59,7.98z"/>
		<path class="st1" d="M54.2,3.74c0.28,0,0.55-0.11,0.75-0.34l0.57-0.64c0.37-0.41,0.33-1.05-0.08-1.41s-1.05-0.33-1.41,0.08
			l-0.57,0.64c-0.37,0.41-0.33,1.05,0.08,1.41C53.72,3.66,53.96,3.74,54.2,3.74z"/>
	</g>
</g>
</svg>
